HIERARCHY
ROOT Hips
{
    OFFSET 0.000000 0.000000 0.000000
    CHANNELS 6 Xposition Yposition Zposition Zrotation Xrotation Yrotation
    JOINT Spine
    {
        OFFSET -0.000000 14.517291 0.000000
        CHANNELS 3 Zrotation Xrotation Yrotation
        JOINT Spine1
        {
            OFFSET -0.000000 37.558300 0.000000
            CHANNELS 3 Zrotation Xrotation Yrotation
            JOINT Neck
            {
                OFFSET -0.000000 37.404057 3.400369
                CHANNELS 3 Zrotation Xrotation Yrotation
                JOINT Head
                {
                    OFFSET -0.000000 24.785618 -3.540803
                    CHANNELS 3 Zrotation Xrotation Yrotation
                    End Site
                    {
                        OFFSET -0.000000 35.408028 0.000000
                    }
                }
            }
            JOINT LeftShoulder
            {
                OFFSET 6.992933 33.973492 -0.192664
                CHANNELS 3 Zrotation Xrotation Yrotation
                JOINT LeftArm
                {
                    OFFSET 21.527611 0.000000 0.000000
                    CHANNELS 3 Zrotation Xrotation Yrotation
                    JOINT LeftForeArm
                    {
                        OFFSET 56.353916 0.000000 0.000000
                        CHANNELS 3 Zrotation Xrotation Yrotation
                        JOINT LeftHand
                        {
                            OFFSET 47.774071 0.000000 0.000000
                            CHANNELS 3 Zrotation Xrotation Yrotation
                            End Site
                            {
                                OFFSET 26.556021 0.000000 0.000000
                            }
                        }
                    }
                }
            }
            JOINT RightShoulder
            {
                OFFSET -7.065357 33.973492 -0.192664
                CHANNELS 3 Zrotation Xrotation Yrotation
                JOINT RightArm
                {
                    OFFSET -21.527611 0.000000 0.000000
                    CHANNELS 3 Zrotation Xrotation Yrotation
                    JOINT RightForeArm
                    {
                        OFFSET -56.353916 0.000000 0.000000
                        CHANNELS 3 Zrotation Xrotation Yrotation
                        JOINT RightHand
                        {
                            OFFSET -47.774071 0.000000 0.000000
                            CHANNELS 3 Zrotation Xrotation Yrotation
                            End Site
                            {
                                OFFSET -26.556021 0.000000 0.000000
                            }
                        }
                    }
                }
            }
        }
    }
    JOINT LeftUpLeg
    {
        OFFSET 17.704014 0.000000 0.000000
        CHANNELS 3 Zrotation Xrotation Yrotation
        JOINT LeftLeg
        {
            OFFSET -0.000000 -81.181816 0.000000
            CHANNELS 3 Zrotation Xrotation Yrotation
            JOINT LeftFoot
            {
                OFFSET -0.000000 -62.821102 0.000000
                CHANNELS 3 Zrotation Xrotation Yrotation
                JOINT LeftToeBase
                {
                    OFFSET -0.000000 -11.507608 26.556021
                    CHANNELS 3 Zrotation Xrotation Yrotation
                    End Site
                    {
                        OFFSET -0.000000 0.000000 7.081605
                    }
                }
            }
        }
    }
    JOINT RightUpLeg
    {
        OFFSET -17.704014 0.000000 0.000000
        CHANNELS 3 Zrotation Xrotation Yrotation
        JOINT RightLeg
        {
            OFFSET -0.000000 -81.181816 0.000000
            CHANNELS 3 Zrotation Xrotation Yrotation
            JOINT RightFoot
            {
                OFFSET -0.000000 -62.821102 0.000000
                CHANNELS 3 Zrotation Xrotation Yrotation
                JOINT RightToeBase
                {
                    OFFSET -0.000000 -11.507608 26.556021
                    CHANNELS 3 Zrotation Xrotation Yrotation
                    End Site
                    {
                        OFFSET -0.000000 0.000000 7.081605
                    }
                }
            }
        }
    }
}
MOTION
Frames:    13
Frame Time:    0.008333
29.153038    143.329315    52.278423    5.081018    2.421229    -65.006729    -0.262302    3.393984    -3.042283    -0.513673    -1.082292    -1.022408    22.700060    11.551219    22.073021    -19.626743    1.278889    19.526978    13.376657    2.773072    -21.125113    -3.546051    -11.786859    -25.417498    1.800550    1.984492    -71.691406    -5.698504    5.154344    -36.387146    -5.644755    -2.679963    -7.634762    33.023998    -27.206440    46.603607    11.260457    -31.839977    110.336617    29.345247    -36.682930    38.412117    38.767204    -23.299366    34.011902    -37.432072    47.779213    11.377737    3.277987    -17.248013    44.247128    0.000000    0.000000    0.000000    -33.032688    -16.850374    -16.376465    3.584954    35.191334    -5.783891    20.797298    -9.383561    7.416791    0.000000    0.000000    0.000000    
29.162588    143.339493    52.262161    5.090359    2.423944    -65.014755    -0.263207    3.394590    -3.043512    -0.505578    -1.096881    -1.022791    22.682289    11.570628    22.068708    -19.617872    1.256912    19.524805    13.374629    2.784939    -21.132654    -3.528581    -11.829163    -25.509068    1.763580    2.190855    -70.084778    -5.614185    5.287805    -36.743439    -5.645768    -2.664771    -7.627574    33.019012    -27.209146    46.610985    11.244309    -31.862986    110.320251    29.342686    -36.681995    38.412010    38.763962    -23.299904    34.020279    -37.404366    47.753212    11.342425    3.266035    -17.234726    44.272499    0.000000    0.000000    0.000000    -33.029087    -16.867802    -16.387835    3.578451    35.187645    -5.761732    20.806969    -9.373751    7.402860    0.000000    0.000000    0.000000    
29.174599    143.351929    52.246632    5.100749    2.425379    -65.022942    -0.262612    3.379514    -3.041996    -0.511951    -1.081256    -1.022329    22.677444    11.559908    22.065977    -19.599491    1.256054    19.521994    13.389254    2.773634    -21.137445    -3.522827    -11.859035    -25.604179    1.662920    2.334490    -68.513336    -5.635841    5.345954    -36.957241    -5.638577    -2.669001    -7.620244    33.009766    -27.215946    46.607903    11.247891    -31.878349    110.313911    29.346128    -36.699432    38.407314    38.758690    -23.301825    34.019299    -37.386833    47.734436    11.322197    3.268393    -17.220982    44.279396    0.000000    0.000000    0.000000    -33.029739    -16.886475    -16.377104    3.590956    35.180061    -5.779016    20.786526    -9.353228    7.399703    0.000000    0.000000    0.000000    
29.187220    143.365768    52.228535    5.111021    2.429526    -65.032066    -0.257374    3.380262    -3.042124    -0.518962    -1.088055    -1.022422    22.684633    11.554020    22.068649    -19.601929    1.258484    19.523315    13.398648    2.763150    -21.129606    -3.524395    -11.889349    -25.708174    1.485569    2.360921    -66.934227    -5.934824    5.339588    -37.260445    -5.630827    -2.676289    -7.619143    33.006538    -27.212759    46.614620    11.255991    -31.890875    110.317757    29.339993    -36.721943    38.414272    38.754742    -23.306423    34.022808    -37.358719    47.707523    11.321808    3.341970    -17.071430    44.149433    0.000000    0.000000    0.000000    -33.023479    -16.907934    -16.366486    3.591813    35.174316    -5.783848    20.783272    -9.328745    7.391064    0.000000    0.000000    0.000000    
29.199728    143.376587    52.213322    5.125701    2.432319    -65.042343    -0.254194    3.372830    -3.043950    -0.521782    -1.091780    -1.022986    22.676226    11.539589    22.073545    -19.582859    1.278901    19.531658    13.398993    2.748677    -21.140308    -3.516202    -11.936518    -25.760075    1.397515    2.557309    -65.407532    -5.903864    5.455810    -37.526451    -5.624556    -2.676671    -7.616548    32.990643    -27.200365    46.623070    11.243006    -31.929228    110.312561    29.331093    -36.747581    38.399780    38.749290    -23.315603    34.028908    -37.331745    47.700779    11.271718    3.248578    -17.193018    44.292065    0.000000    0.000000    0.000000    -33.027798    -16.929586    -16.354399    3.622145    35.167679    -5.821598    20.697025    -9.350163    7.404837    0.000000    0.000000    0.000000    
29.208241    143.386581    52.199280    5.133773    2.432680    -65.049278    -0.249117    3.373300    -3.046979    -0.528362    -1.102947    -1.024059    22.680105    11.544026    22.072262    -19.587227    1.284394    19.531485    13.407362    2.748801    -21.149776    -3.520186    -11.916409    -25.827070    1.558633    2.801243    -63.885956    -5.704162    5.711502    -37.637299    -5.622180    -2.675546    -7.618487    32.982971    -27.181280    46.628593    11.237007    -31.962601    110.313797    29.322832    -36.776585    38.391956    38.743767    -23.319868    34.025211    -37.315067    47.679333    11.265710    3.230527    -17.186344    44.302246    0.000000    0.000000    0.000000    -33.027924    -16.943283    -16.364847    3.619925    35.161411    -5.813548    20.750854    -9.318082    7.389171    0.000000    0.000000    0.000000    
29.217556    143.395416    52.181595    5.141773    2.431797    -65.057610    -0.257127    3.370509    -3.048297    -0.523170    -1.099431    -1.024506    22.699099    11.534031    22.080923    -19.608294    1.305068    19.538485    13.431763    2.738328    -21.154697    -3.547416    -11.887260    -25.904297    1.709177    3.010599    -62.317066    -5.542740    5.946616    -38.013741    -5.611546    -2.674191    -7.624800    32.996727    -27.201721    46.655926    11.240479    -31.948805    110.304214    29.308176    -36.773548    38.375847    38.740932    -23.318970    34.020714    -37.304790    47.659103    11.234176    3.302025    -17.057644    44.218555    0.000000    0.000000    0.000000    -33.030109    -16.956253    -16.372828    3.615462    35.160042    -5.780742    20.692051    -9.344323    7.398178    0.000000    0.000000    0.000000    
29.229769    143.403168    52.165325    5.149969    2.435799    -65.070473    -0.255138    3.374084    -3.052386    -0.519007    -1.112223    -1.025880    22.717068    11.533918    22.085863    -19.641382    1.329016    19.542788    13.437792    2.733079    -21.163824    -3.557834    -11.865986    -25.952181    1.605317    3.066404    -60.838127    -5.572808    5.934453    -38.238705    -5.602906    -2.658690    -7.626938    32.993458    -27.192362    46.686638    11.230715    -31.990786    110.305511    29.320900    -36.798786    38.373425    38.741943    -23.321016    34.030834    -37.288589    47.644310    11.220297    3.225271    -17.164459    44.337471    0.000000    0.000000    0.000000    -33.024014    -16.974350    -16.361307    3.635283    35.152092    -5.786432    20.799513    -9.350884    7.282975    0.000000    0.000000    0.000000    
29.240339    143.409424    52.151226    5.162515    2.433440    -65.082642    -0.262633    3.368105    -3.056829    -0.517404    -1.109098    -1.027445    22.731276    11.524847    22.095745    -19.663012    1.342462    19.550209    13.456341    2.725951    -21.159616    -3.568156    -11.811693    -26.007887    1.605891    3.136783    -59.345196    -5.551871    5.993003    -38.667088    -5.596402    -2.675141    -7.625748    32.996967    -27.195440    46.692432    11.229090    -31.981989    110.300255    29.299322    -36.796768    38.361080    38.735119    -23.327770    34.044628    -37.251816    47.647720    11.189518    3.203337    -17.156559    44.327507    0.000000    0.000000    0.000000    -33.031013    -16.993296    -16.377396    3.628950    35.148899    -5.767646    20.805212    -9.347101    7.293256    0.000000    0.000000    0.000000    
29.254993    143.413803    52.137039    5.172903    2.433360    -65.091354    -0.263327    3.368129    -3.064411    -0.511231    -1.107611    -1.029905    22.731142    11.504609    22.103233    -19.677374    1.365079    19.555849    13.459945    2.700591    -21.174667    -3.569443    -11.760348    -26.011545    1.508591    3.189220    -57.895058    -5.506763    5.972048    -39.089226    -5.601939    -2.665458    -7.637844    33.015205    -27.191135    46.727154    11.222960    -32.008423    110.304192    29.333397    -36.798847    38.388947    38.730968    -23.335949    34.058971    -37.226410    47.640438    11.163606    3.198030    -17.146494    44.333176    0.000000    0.000000    0.000000    -33.033619    -17.009548    -16.372961    3.633639    35.138084    -5.771962    20.804987    -9.337239    7.280555    0.000000    0.000000    0.000000    
29.270348    143.417389    52.123325    5.185798    2.436089    -65.105064    -0.260855    3.366288    -3.070479    -0.514119    -1.114619    -1.031942    22.730547    11.513220    22.103291    -19.682713    1.349950    19.554512    13.471066    2.691176    -21.173603    -3.572825    -11.737298    -26.036991    1.407241    3.292753    -56.480289    -5.440201    6.000090    -39.589184    -5.597470    -2.659162    -7.639367    33.033661    -27.199909    46.745823    11.236415    -31.994232    110.315720    29.353777    -36.794109    38.405525    38.733994    -23.339901    34.066956    -37.229481    47.628334    11.167913    3.190381    -17.144987    44.339081    0.000000    0.000000    0.000000    -33.036263    -17.033802    -16.376266    3.635746    35.136078    -5.755164    20.792957    -9.348361    7.279718    0.000000    0.000000    0.000000    
29.281933    143.417435    52.114243    5.195013    2.428438    -65.114594    -0.261810    3.371313    -3.079121    -0.516749    -1.121240    -1.034877    22.727682    11.521213    22.099318    -19.702248    1.332683    19.546745    13.459604    2.675117    -21.160540    -3.562201    -11.692309    -26.075562    1.291639    3.367403    -55.034607    -5.332573    5.987762    -40.245129    -5.601902    -2.659854    -7.641861    33.053013    -27.216412    46.754646    11.256962    -31.954027    110.337563    29.326056    -36.795059    38.402660    38.723331    -23.340685    34.072300    -37.218250    47.620758    11.146085    3.199191    -17.133928    44.357117    0.000000    0.000000    0.000000    -33.053059    -17.046751    -16.378626    3.649696    35.130005    -5.776413    20.694794    -9.306966    7.381288    0.000000    0.000000    0.000000    
29.293732    143.418152    52.104259    5.204265    2.423920    -65.129639    -0.264021    3.366637    -3.085117    -0.515308    -1.115576    -1.036901    22.712214    11.524926    22.101326    -19.698048    1.313643    19.547649    13.450561    2.654680    -21.157293    -3.553547    -11.670164    -26.082254    1.150030    3.461577    -53.719170    -5.281283    5.986803    -40.513386    -5.609615    -2.651249    -7.636084    33.061939    -27.221584    46.755604    11.260908    -31.952888    110.357315    29.336123    -36.798744    38.410248    38.717606    -23.337126    34.086090    -37.210503    47.608391    11.149082    3.207178    -17.124332    44.353039    0.000000    0.000000    0.000000    -33.061390    -17.070305    -16.373461    3.654682    35.135494    -5.799895    20.695524    -9.299738    7.392041    0.000000    0.000000    0.000000    
